<svg xmlns="http://www.w3.org/2000/svg" class="icon" viewBox="0 0 1024 1024" width="200" height="200"><path d="M159.669 148.025h48.29c6.77 0 12.258 5.487 12.258 12.257V863.83c0 6.77-5.489 12.258-12.259 12.258h-48.29c-6.769 0-12.258-5.489-12.258-12.258V160.281c0-6.77 5.488-12.257 12.259-12.257z"/><path d="M729.862 75.218v133.355c0 6.77-5.489 12.258-12.259 12.258h-48.29c-6.77 0-12.258-5.488-12.258-12.258V87.476c0-6.77-5.488-12.258-12.257-12.258H86.861c-6.77 0-12.257 5.49-12.257 12.258v849.16c0 6.77 5.489 12.257 12.257 12.257h557.936c6.77 0 12.257-5.487 12.257-12.257V815.539c0-6.77 5.489-12.258 12.257-12.258h48.291c6.77 0 12.257 5.489 12.257 12.258v133.354c0 40.207-32.564 72.806-72.805 72.806H74.604c-40.17 0-72.806-32.6-72.806-72.806V75.216c0-40.205 32.637-72.805 72.806-72.805h582.451c40.241 0 72.807 32.6 72.807 72.806z"/><path d="M365.83 354.185v-48.291c0-6.77 5.487-12.257 12.257-12.257H790.41c6.77 0 12.257-5.49 12.257-12.258V174.194c0-10.393 12.122-16.07 20.104-9.416l187.015 155.843c5.88 4.9 5.88 13.933 0 18.834L822.773 495.3c-7.983 6.652-20.105.975-20.105-9.418V378.7c0-6.77-5.489-12.258-12.257-12.258H378.087c-6.77 0-12.257-5.489-12.257-12.257zm636.108 376.289H589.617c-6.77 0-12.257 5.488-12.257 12.258v107.183c0 10.393-12.122 16.07-20.105 9.418L370.24 703.488c-5.882-4.9-5.882-13.933 0-18.834L557.252 528.81c7.983-6.653 20.104-.976 20.104 9.417V645.41c0 6.77 5.49 12.258 12.259 12.258h412.323c6.77 0 12.258 5.488 12.258 12.257v48.29c0 6.77-5.488 12.258-12.256 12.258z"/></svg>