<?xml version="1.0" standalone="no"?><!DOCTYPE svg PUBLIC "-//W3C//DTD SVG 1.1//EN" "http://www.w3.org/Graphics/SVG/1.1/DTD/svg11.dtd"><svg t="1710722830129" class="icon" viewBox="0 0 1024 1024" version="1.1" xmlns="http://www.w3.org/2000/svg" p-id="49060" xmlns:xlink="http://www.w3.org/1999/xlink" width="200" height="200"><path d="M844.967484 594.441949l-63.79377 112.389025h47.295381c3.099697 0 5.599453 2.499756 5.599453 5.599453v39.296162c0 3.099697-2.499756 5.599453-5.599453 5.599453h-73.692804v28.897178h73.592814c3.099697 0 5.599453 2.499756 5.599453 5.599454v39.296162c0 3.099697-2.499756 5.599453-5.599453 5.599453h-73.592814v75.892589c0 3.099697-2.499756 5.599453-5.599453 5.599453H687.982814c-3.099697 0-5.599453-2.499756-5.599453-5.599453V836.91827h-71.193048c-3.099697 0-5.599453-2.499756-5.599453-5.599453v-39.296163c0-3.099697 2.499756-5.599453 5.599453-5.599453h71.193048v-28.897178h-71.193048c-3.099697 0-5.599453-2.499756-5.599453-5.599453v-39.296163c0-3.199688 2.499756-5.699443 5.599453-5.699443h43.295772l-63.89376-112.489015c-1.999805-3.699639 0.499951-8.29919 4.899521-8.29919h71.692999l52.594864 101.190119 52.294893-101.190119h67.99336c4.29958 0 7.099307 4.499561 4.899522 8.29919zM392.311688 709.830681H273.823259c-26.097451 0-47.395372-21.29792-47.395371-47.395372 0-26.097451 21.29792-47.395372 47.395371-47.395371h118.488429c26.097451 0 47.395372 21.29792 47.395372 47.395371 0 26.097451-21.29792 47.395372-47.395372 47.395372zM273.823259 417.159262H652.986232c26.097451 0 47.395372 21.29792 47.395371 47.395371S679.083683 511.950005 652.986232 511.950005H273.823259c-26.097451 0-47.395372-21.29792-47.395371-47.395372s21.29792-47.395372 47.395371-47.395371z m0-199.080559h248.875696c26.097451 0 47.395372 21.29792 47.395372 47.395372 0 26.097451-21.29792 47.395372-47.395372 47.395371H273.823259c-26.097451 0-47.395372-21.29792-47.395371-47.395371 0-26.097451 21.29792-47.395372 47.395371-47.395372zM908.961234 0H115.038766C73.242847 0 39.146177 34.09667 39.146177 75.892589v872.214822c0 41.695928 34.09667 75.892589 75.892589 75.892589h637.53774c127.787521 0 232.277317-104.489796 232.277317-232.277317V75.892589C984.853823 34.09667 950.757153 0 908.961234 0z" p-id="49061"></path></svg>